<svg xmlns="http://www.w3.org/2000/svg" viewBox="0 0 88.93 59.64"><g id="Layer_2" data-name="Layer 2"><g id="Layer_1-2" data-name="Layer 1"><path d="M28.77,36.28c-1.94,0-5-4-3-9,1.59-4,10-11,11-14s2-6-3-5C27.19,9.6,4.77,36.28,8.5,50c.45,1.67,1.87,2.38,4.32,2.38a34,34,0,0,0,10.37-2.09,3.5,3.5,0,0,1,1.51-.36,2.31,2.31,0,0,1,2.23,1.94,1.55,1.55,0,0,1-.86,1.23c-3.89,2.16-11.24,6-17.21,6C2.45,59.11,0,55.59,0,50.33,0,33.48,23.28,2.92,33.19.43c4.58-1.15,9,0,10.58,3.85,1,2,1,6-.35,8.68C40.86,18,31.77,24.28,30,34.34,29.77,36.28,29.27,36.28,28.77,36.28Z"/><path d="M54.37,37.15c0,6.12,2.38,13.91,5.4,15.13,3,1,3,2.64,3,3,0,1.73-5.06,4-7,4-7.49,0-7.81-11.83-8.24-19-.07-.65-.43-.65-.65-.65-2.16,0-5.21,9.62-10.11,17.61-.5,1.08-3.42,2-4,2-1.73,0-9.25,2.35-5-5,4.25-8.93,25-26,25.09-50.25,0-2,2.73-2.52,4.32-2.52,2.66,0,8.78,2.88,8.78,6a2.87,2.87,0,0,1-.86,1.87,90,90,0,0,0-9.87,14.18,1.72,1.72,0,0,0-.21.51c0,.21.14.43.65.43,2.43,0,17.73-15.75,21.71-20.16a8.38,8.38,0,0,1,1.75-1.51,3.66,3.66,0,0,1,1.81-.65c3.46,0,8,1.94,8,4.89,0,1-.57,2-1.94,3.17C76,18,55.16,31.61,54.51,35.57A11.05,11.05,0,0,0,54.37,37.15Z"/></g></g></svg>